<?xml version="1.0" encoding="UTF-8" standalone="no"?>
<svg
   xmlns:dc="http://purl.org/dc/elements/1.1/"
   xmlns:cc="http://creativecommons.org/ns#"
   xmlns:rdf="http://www.w3.org/1999/02/22-rdf-syntax-ns#"
   xmlns:svg="http://www.w3.org/2000/svg"
   xmlns="http://www.w3.org/2000/svg"
   xmlns:sodipodi="http://sodipodi.sourceforge.net/DTD/sodipodi-0.dtd"
   xmlns:inkscape="http://www.inkscape.org/namespaces/inkscape"
   version="1.0"
   width="1807.75cm"
   height="1600cm"
   viewBox="0 0 51243.307 45354.331"
   preserveAspectRatio="xMidYMid meet"
   id="svg50"
   sodipodi:docname="heightmap_solid_sim.svg"
   inkscape:version="0.92.2 (unknown)">
  <defs
     id="defs54" />
  <sodipodi:namedview
     pagecolor="#ffffff"
     bordercolor="#666666"
     borderopacity="1"
     objecttolerance="10"
     gridtolerance="10"
     guidetolerance="10"
     inkscape:pageopacity="0"
     inkscape:pageshadow="2"
     inkscape:window-width="1855"
     inkscape:window-height="1056"
     id="namedview52"
     showgrid="false"
     fit-margin-top="0"
     fit-margin-left="0"
     fit-margin-right="0"
     fit-margin-bottom="0"
     units="cm"
     inkscape:document-units="cm"
     inkscape:zoom="0.01"
     inkscape:cx="18988.607"
     inkscape:cy="25995.339"
     inkscape:window-x="65"
     inkscape:window-y="24"
     inkscape:window-maximized="1"
     inkscape:current-layer="svg50" />
  <metadata
     id="metadata2">
Created by potrace 1.13, written by Peter Selinger 2001-2015
<rdf:RDF>
  <cc:Work
     rdf:about="">
    <dc:format>image/svg+xml</dc:format>
    <dc:type
       rdf:resource="http://purl.org/dc/dcmitype/StillImage" />
    <dc:title></dc:title>
  </cc:Work>
</rdf:RDF>
</metadata>
  <g
     transform="matrix(7.086614,0,0,-7.086614,-1984.2519,52228.345)"
     id="g48"
     style="fill:#000000;stroke:none">
    <path
       d="m 5909,7358 -2,-13 2,-41 3,-42 -61,-7 -61,-7 v -29 -29 h 10 11 l 117,20 117,21 20,4 21,4 23,-135 24,-135 -9,-8 -9,-9 -395,-71 -395,-71 -270,-45 -270,-46 -220,-41 -220,-40 -7,-7 -8,-7 11,-61 11,-61 19,5 19,5 v -9 -9 l 50,-278 49,-279 -4,-7 -5,-8 -58,-7 -58,-7 -14,-8 -13,-8 6,-42 5,-42 5,-4 4,-4 53,10 53,10 4,-4 4,-4 90,-511 89,-512 v -59 -59 l 48,-6 47,-5 75,-15 75,-15 h 27 26 l 6,28 5,27 6,47 6,46 -58,7 -58,7 -15,4 -16,4 -42,232 -43,233 -121,658 -122,658 13,9 13,8 46,6 46,6 10,-10 10,-10 h 22 22 l 16,6 16,6 v 13 13 l 28,6 27,6 265,45 265,46 23,6 22,5 v -16 -16 l 23,1 h 22 l 20,8 20,8 v 14 14 l 310,53 310,53 18,-11 19,-11 29,6 29,7 v 15 15 l 18,-4 19,-5 19,14 18,13 -28,168 -28,167 -4,25 -4,25 -10,3 -10,4 v 13 14 l -12,26 -11,25 h -99 -98 z"
       id="path4"
       inkscape:connector-curvature="0" />
    <path
       d="m 6740,7333 v -18 l 24,-136 24,-137 -5,-26 -5,-26 10,-13 10,-12 97,-560 96,-560 v -55 -55 l 14,-30 14,-30 80,-480 80,-480 -6,-23 -6,-23 11,-22 10,-22 12,-40 12,-40 -4,-31 -3,-30 -663,87 -663,87 -45,7 -44,6 3,31 2,32 -39,8 -40,8 -8,-12 -8,-13 v -24 -23 l -21,5 -20,5 -5,-11 -4,-12 -8,-63 -9,-64 11,-4 11,-4 280,-35 280,-35 145,-20 145,-20 409,-55 410,-55 2,3 3,3 11,67 11,68 -6,10 -6,9 h -29 -28 l -13,73 -12,72 1,40 1,39 -10,12 -10,12 -84,499 -84,498 5,22 6,22 -15,28 -16,28 -96,573 -95,572 6,24 6,24 -13,24 -14,23 -25,145 -25,145 -28,3 -27,3 z"
       id="path6"
       inkscape:connector-curvature="0" />
    <path
       d="m 500,6120 v -10 h 200 200 v 10 10 H 700 500 Z"
       id="path8"
       inkscape:connector-curvature="0" />
    <path
       d="m 642,6055 v -30 l 5,18 5,17 -5,13 -5,12 z"
       id="path10"
       inkscape:connector-curvature="0" />
    <path
       d="m 671,6048 v -23 l 9,20 9,20 1,-20 1,-20 8,20 8,20 5,-20 6,-20 1,23 1,22 h -25 -25 z"
       id="path12"
       inkscape:connector-curvature="0" />
    <path
       d="m 6252,5882 -13,-9 3,-34 3,-34 29,2 30,2 12,5 12,5 -7,33 -7,33 -24,3 -25,2 z"
       id="path14"
       inkscape:connector-curvature="0" />
    <path
       d="m 5531,5761 -14,-9 7,-37 7,-37 22,6 22,6 h 13 12 v 40 40 h -27 -28 z"
       id="path16"
       inkscape:connector-curvature="0" />
    <path
       d="m 4840,5405 -12,-15 6,-24 6,-25 20,-6 19,-6 21,11 20,11 v 22 23 l -12,12 -12,12 h -22 -22 z"
       id="path18"
       inkscape:connector-curvature="0" />
    <path
       d="m 3702,5233 -63,-4 2,-189 2,-190 14,-20 14,-20 40,-6 39,-7 v -10 -11 l -32,-85 -31,-86 -8,-9 -8,-9 -133,-24 -133,-23 -292,-50 -291,-50 h -31 -31 v -40 -40 h 34 34 l 10,-47 10,-48 7,-48 7,-47 7,-4 6,-4 47,7 47,8 4,-10 3,-9 55,7 56,7 10,6 11,7 -18,103 -17,104 11,3 11,4 279,50 279,51 5,-4 4,-5 19,-102 18,-101 3,-3 3,-3 74,14 75,14 2,3 2,2 -18,99 -18,99 -21,16 -21,16 37,103 38,102 29,-6 28,-6 9,13 8,14 34,-3 34,-3 7,51 7,51 -5,8 -6,9 -55,7 -55,6 v 45 44 h -40 -39 l -3,128 -3,127 -20,1 h -20 z"
       id="path20"
       inkscape:connector-curvature="0" />
    <path
       d="m 4905,4950 -6,-30 6,-10 6,-10 h 34 33 l 6,16 6,16 v 24 24 h -39 -39 z"
       id="path22"
       inkscape:connector-curvature="0" />
    <path
       d="m 2133,4880 -5,-20 h -374 -374 v 15 15 h -20 -20 v -26 -26 l -30,6 -30,6 v -50 -50 h 20 20 v -10 -10 l 24,-10 24,-9 36,-6 36,-7 v 36 36 h 355 355 v -165 -165 h -355 -355 v 29 30 l -10,6 -9,6 -18,-9 -18,-10 -30,-9 -30,-9 4,-20 5,-19 v -102 l 1,-103 37,-25 37,-25 h 15 16 v 80 80 h 355 355 v -80 -80 h 26 26 l 29,21 29,20 -6,70 -7,69 h 37 36 v 40 40 h -35 -35 v 230 230 h -56 -56 z"
       id="path24"
       inkscape:connector-curvature="0" />
    <path
       d="m 758,4880 -3,-9 -77,-3 -78,-3 v -27 -28 h 55 55 v -55 -55 h 27 26 l -7,-352 -7,-353 -10,-3 -9,-4 v -23 -23 l 8,-4 9,-3 6,-32 7,-33 h -95 -94 l -3,43 -3,42 -22,3 -23,3 v -45 -46 H 419 318 l 4,39 3,38 -12,12 -12,11 h -11 -10 v -157 -158 l 15,-103 15,-103 5,-10 6,-9 h 38 39 l 29,-6 29,-6 23,-166 22,-167 5,-26 5,-26 -67,-24 -66,-24 6,-60 6,-60 6,-57 7,-58 h -30 -30 l -32,-6 -31,-6 v -83 -83 l 38,8 37,8 135,18 135,17 8,7 8,7 -16,114 -16,114 -54,390 -55,390 -6,34 -5,34 119,-7 120,-7 76,7 76,7 v 181 181 l 7,337 6,337 26,3 26,3 3,39 3,39 -10,10 -10,10 -10,-24 -10,-24 v 18 l -1,17 h -10 -10 v 25 25 h -64 -64 z"
       id="path26"
       inkscape:connector-curvature="0" />
    <path
       d="m 6417,4768 -5,-33 8,-8 7,-8 34,3 34,3 3,38 3,37 h -39 -40 z"
       id="path28"
       inkscape:connector-curvature="0" />
    <path
       d="m 3995,4045 -80,-12 -3,8 -4,9 h -16 -15 l -64,-11 -63,-11 v -19 -19 l -22,-5 -23,-5 -255,-45 -255,-46 -17,-5 -18,-5 v 15 15 l -9,5 -8,5 -62,-10 -61,-11 v -14 -13 l -50,-7 -50,-7 v -5 -5 l -46,-329 -46,-330 10,-10 11,-11 96,-9 96,-10 6,6 6,6 13,87 13,88 10,55 10,55 9,88 9,88 4,4 5,4 123,-18 123,-18 5,14 6,15 1,56 1,57 -97,15 -97,15 -6,7 -7,7 38,10 39,10 263,47 263,47 6,-6 6,-7 -26,-91 -26,-92 -3,-2 -3,-3 -59,9 -59,10 -8,-8 -8,-8 -7,-67 -7,-68 h 27 27 l -3,-17 -3,-18 47,-5 47,-6 15,18 15,18 28,-5 28,-5 422,-60 422,-60 15,-6 16,-6 v -17 -16 l -60,-424 -60,-424 -5,-6 -5,-5 -461,61 -460,61 -6,6 -6,5 11,83 10,83 -4,4 -4,4 -45,7 -46,7 -7,-11 -6,-11 -11,-80 -10,-80 -20,2 -20,2 -220,31 -220,30 -21,5 -20,4 7,53 8,53 v 26 l 1,26 -105,13 -105,13 -5,-5 -5,-5 -20,-143 -20,-143 2,-2 3,-3 120,-16 120,-16 440,-60 440,-60 475,-65 475,-65 h 15 16 v 18 17 l 7,57 7,58 -22,4 -23,5 -84,11 -84,10 -2,3 -2,2 61,443 61,443 34,-3 34,-3 3,20 4,20 15,120 14,120 20,135 20,135 -7,7 -7,7 -233,31 -233,32 -6,-6 -6,-6 -5,-49 -4,-50 23,-5 24,-5 188,-25 189,-24 5,-6 6,-5 -18,-136 -19,-135 -6,-10 -6,-10 -489,65 -488,65 -4,4 -4,4 32,110 32,110 103,22 103,22 54,-7 54,-7 6,24 7,23 v 31 32 l -22,6 -23,6 -45,-1 -45,-1 z"
       id="path30"
       inkscape:connector-curvature="0" />
    <path
       d="m 1370,3874 -35,-24 v -86 -85 l 33,-19 33,-20 h 30 29 v 35 35 h 340 340 v -29 -29 l 30,-4 30,-5 29,21 28,20 -1,73 -1,73 -23,22 -23,23 h -29 -30 v -17 -16 l -6,-16 -6,-16 h -344 -344 v 45 45 h -22 l -23,-1 z"
       id="path32"
       inkscape:connector-curvature="0" />
    <path
       d="m 5425,3877 -3,-12 -26,-190 -26,-190 -5,-23 -4,-24 -7,-59 -7,-59 h 32 31 v -6 -6 l -65,-490 -65,-490 v -29 -29 h 4 5 l 427,-56 427,-55 11,-2 11,-2 -3,50 -3,50 -10,27 -11,27 -17,5 -16,4 -358,48 -357,48 -9,6 -10,5 20,125 20,125 43,308 43,307 6,6 6,7 83,-11 83,-11 530,-71 530,-71 31,-5 30,-6 -33,-226 -32,-227 4,-12 4,-13 h 28 28 l 14,-9 14,-9 -24,-202 -23,-202 -61,6 -60,7 -52,6 -52,6 -6,-39 -6,-39 -10,-15 -9,-15 -6,-13 -6,-13 5,-5 5,-6 167,-22 167,-22 9,23 9,24 v 9 8 l -11,4 -11,4 36,273 36,273 v 19 19 h -39 -40 l -5,8 -4,7 24,175 23,175 1,18 v 17 h 15 15 v 34 35 l 8,4 7,5 170,-24 170,-23 4,-1 h 3 l -7,-36 -6,-37 9,-6 10,-6 -59,-445 -58,-445 h -1 v 0 l -45,3 -45,4 v -30 -31 l -15,-14 -14,-15 -7,-26 -6,-26 h 8 9 l 100,-15 100,-14 13,-1 h 12 v 30 30 h -15 -15 v 4 4 l 20,148 19,149 46,360 46,360 29,214 30,214 v 1 1 h 37 38 l 3,43 3,42 h -5 -5 l -222,30 -222,31 -8,-8 -7,-8 -7,-52 -7,-53 h 14 l 13,-1 132,-18 133,-18 5,-5 5,-5 -17,-138 -17,-137 -13,-5 -14,-6 -440,59 -441,59 -10,6 -10,7 17,145 18,146 26,-5 26,-5 175,-23 175,-24 6,6 7,7 6,52 7,52 -33,5 -33,6 -190,26 -190,26 -30,2 -30,1 -7,-45 -7,-45 5,-27 6,-28 -17,-132 -17,-133 -3,-3 -2,-3 -414,56 -413,56 -4,4 -4,4 20,141 20,142 4,4 4,4 294,-40 294,-40 7,7 7,8 7,53 7,52 h -12 -13 l -301,40 -301,40 -28,5 -28,5 z"
       id="path34"
       inkscape:connector-curvature="0" />
    <path
       d="m 1352,3327 -32,-32 v -17 -18 h 10 10 v -175 -175 h 108 107 l 23,6 22,6 v 39 39 h -75 -75 v 44 43 l 77,7 76,6 h 279 278 v -45 -45 h -74 -75 l -6,-10 -6,-10 7,-35 6,-35 h 118 118 l 4,188 4,187 -20,23 -19,22 h -44 -43 v -80 -80 h -340 -339 l -3,88 -3,87 -30,2 -30,3 z"
       id="path36"
       inkscape:connector-curvature="0" />
    <path
       d="m 3607,3293 -5,-8 -17,-113 -16,-114 5,-5 6,-6 49,-5 48,-4 13,103 12,104 4,18 5,17 -13,4 -13,4 -37,7 -36,6 z"
       id="path38"
       inkscape:connector-curvature="0" />
    <path
       d="m 480,2168 -145,-20 -4,-4 -3,-3 7,-86 7,-86 21,3 22,3 v 27 26 l 5,5 5,4 47,5 46,5 6,-31 6,-31 25,-195 25,-195 41,-305 40,-305 12,-7 12,-8 h 85 85 l 12,8 12,8 -54,429 -53,430 -7,75 -6,75 -5,38 -6,37 h 261 261 v -45 -45 h 45 45 v 45 44 l 76,3 76,3 18,52 18,52 -6,5 -5,6 -441,-1 -441,-2 z"
       id="path40"
       inkscape:connector-curvature="0" />
    <path
       d="m 1880,2161 v -30 l 10,-6 10,-6 v -25 -24 h 75 75 v -45 -45 h 45 45 v 45 45 h 273 274 l -19,-117 -18,-118 -55,-420 -56,-419 5,-13 5,-13 h 99 100 l 9,13 10,12 67,495 68,495 4,15 4,16 76,-10 76,-9 8,12 8,13 6,60 7,60 -4,5 -5,4 -129,19 -128,20 h -472 -473 z"
       id="path42"
       inkscape:connector-curvature="0" />
    <path
       d="m 3465,2090 -4,-6 -10,-65 -11,-64 v -6 -7 l 45,-6 45,-7 v -6 -5 l -34,-256 -35,-257 -3,-30 -3,-29 160,-22 160,-22 133,-17 132,-18 v -12 -13 l 23,-6 22,-6 h 38 37 v 13 12 l 39,283 38,282 4,4 4,4 153,-21 152,-21 v -9 -8 l -110,-391 -110,-391 5,-5 5,-5 14,12 14,12 5,-13 5,-13 9,12 8,12 109,389 109,390 32,-5 32,-5 7,10 6,9 6,71 7,71 -34,5 -34,6 -264,35 -264,35 h -17 -18 l -5,-22 -6,-23 -6,-57 -7,-58 h 36 36 l -5,-37 -6,-38 -28,-213 -29,-213 -5,-6 -6,-5 -248,32 -248,33 -6,6 -7,6 34,249 34,249 3,3 2,3 113,-16 112,-16 5,5 5,4 2,75 3,74 -55,7 -55,8 -133,18 -133,19 z"
       id="path44"
       inkscape:connector-curvature="0" />
    <path
       d="m 5205,1803 -6,-58 -6,-22 -5,-22 36,-7 37,-6 -7,-21 -7,-22 -93,-329 -93,-330 5,-8 5,-8 h 19 19 l 8,13 7,12 96,340 97,340 74,-3 74,-4 4,-4 4,-3 -22,-118 -21,-117 8,-7 7,-7 51,-6 52,-6 11,77 12,78 6,58 6,57 h 21 21 l 590,-77 590,-76 2,-2 2,-1 -16,-137 -17,-136 5,-5 4,-4 55,-4 55,-3 5,57 5,56 6,7 7,6 219,-31 219,-30 h 21 21 l 12,98 12,97 8,10 7,10 7,28 6,27 h -4 -5 l -463,65 -463,64 -636,86 -637,85 h -15 -15 z m 1930,-333 207,-30 h 4 4 v -41 -41 l -32,6 -33,5 -155,21 -155,20 -27,6 -28,6 v 39 39 h 4 4 z"
       id="path46"
       inkscape:connector-curvature="0" />
  </g>
</svg>
