<?xml version="1.0" encoding="UTF-8" standalone="no"?>
<!-- Created with Inkscape (http://www.inkscape.org/) -->

<svg
   xmlns:dc="http://purl.org/dc/elements/1.1/"
   xmlns:cc="http://creativecommons.org/ns#"
   xmlns:rdf="http://www.w3.org/1999/02/22-rdf-syntax-ns#"
   xmlns:svg="http://www.w3.org/2000/svg"
   xmlns="http://www.w3.org/2000/svg"
   xmlns:sodipodi="http://sodipodi.sourceforge.net/DTD/sodipodi-0.dtd"
   xmlns:inkscape="http://www.inkscape.org/namespaces/inkscape"
   width="3392"
   height="2304"
   id="svg2"
   version="1.1"
   inkscape:version="0.48.3.1 r9886"
   sodipodi:docname="tue.library.svg"
   inkscape:export-filename="/home/sdries/ros/hydro/system/src/ed_object_models/models/tue.library/tue.library-high.png"
   inkscape:export-xdpi="90"
   inkscape:export-ydpi="90">
  <defs
     id="defs4" />
  <sodipodi:namedview
     id="base"
     pagecolor="#ffffff"
     bordercolor="#666666"
     borderopacity="1.0"
     inkscape:pageopacity="0.0"
     inkscape:pageshadow="2"
     inkscape:zoom="0.49497475"
     inkscape:cx="2010.7519"
     inkscape:cy="1027.7392"
     inkscape:document-units="px"
     inkscape:current-layer="layer1"
     showgrid="true"
     inkscape:window-width="1920"
     inkscape:window-height="1004"
     inkscape:window-x="0"
     inkscape:window-y="24"
     inkscape:window-maximized="1">
    <inkscape:grid
       type="xygrid"
       id="grid3244"
       empspacing="5"
       visible="true"
       enabled="true"
       snapvisiblegridlinesonly="true"
       units="px"
       spacingx="25px"
       spacingy="25px" />
  </sodipodi:namedview>
  <metadata
     id="metadata7">
    <rdf:RDF>
      <cc:Work
         rdf:about="">
        <dc:format>image/svg+xml</dc:format>
        <dc:type
           rdf:resource="http://purl.org/dc/dcmitype/StillImage" />
        <dc:title />
      </cc:Work>
    </rdf:RDF>
  </metadata>
  <g
     inkscape:groupmode="layer"
     id="layer5"
     inkscape:label="Background"
     sodipodi:insensitive="true">
    <rect
       style="fill:#ffffff;fill-opacity:1"
       id="rect3456"
       width="3392"
       height="2304"
       x="0"
       y="0" />
  </g>
  <g
     inkscape:groupmode="layer"
     id="layer2"
     inkscape:label="Low blocks"
     style="display:inline"
     transform="translate(0,304)"
     sodipodi:insensitive="true">
    <rect
       style="fill:#000000;fill-opacity:1"
       id="rect3248"
       width="250"
       height="250"
       x="850"
       y="200" />
    <rect
       style="fill:#000000;fill-opacity:1"
       id="rect3250"
       width="850"
       height="250"
       x="1250"
       y="200" />
    <rect
       style="fill:#000000;fill-opacity:1"
       id="rect3252"
       width="250"
       height="250"
       x="2250"
       y="200" />
    <rect
       style="fill:#000000;fill-opacity:1"
       id="rect3254"
       width="250"
       height="350"
       x="850"
       y="600" />
    <rect
       style="fill:#000000;fill-opacity:1"
       id="rect3256"
       width="250"
       height="250"
       x="850"
       y="1100" />
    <rect
       style="fill:#000000;fill-opacity:1"
       id="rect3258"
       width="350"
       height="350"
       x="1250"
       y="600" />
    <rect
       style="fill:#000000;fill-opacity:1"
       id="rect3260"
       width="350"
       height="350"
       x="1750"
       y="600" />
    <rect
       style="fill:#000000;fill-opacity:1"
       id="rect3262"
       width="350"
       height="250"
       x="1250"
       y="1100" />
    <rect
       style="fill:#000000;fill-opacity:1"
       id="rect3264"
       width="350"
       height="250"
       x="1750"
       y="1100" />
    <rect
       style="fill:#000000;fill-opacity:1"
       id="rect3266"
       width="250"
       height="350"
       x="2250"
       y="600" />
    <rect
       style="fill:#000000;fill-opacity:1"
       id="rect3268"
       width="250"
       height="250"
       x="2250"
       y="1100" />
  </g>
  <g
     inkscape:groupmode="layer"
     id="layer1"
     inkscape:label="Desk Corners">
    <path
       style="fill:#000000;fill-opacity:1"
       d="M 2100 479 L 2075 504 L 2100 529 L 2125 504 C 2125 490.19288 2113.8071 479 2100 479 z "
       id="path3050" />
    <path
       inkscape:connector-curvature="0"
       style="fill:#000000;fill-opacity:1"
       d="m 2500,479 -25,25 25,25 25,-25 c 0,-13.80712 -11.1929,-25 -25,-25 z"
       id="path3050-1" />
    <path
       inkscape:connector-curvature="0"
       style="fill:#000000;fill-opacity:1"
       d="m 2500,879 -25,25 25,25 25,-25 c 0,-13.80712 -11.1929,-25 -25,-25 z"
       id="path3050-6" />
    <path
       inkscape:connector-curvature="0"
       style="fill:#000000;fill-opacity:1"
       d="m 2500,1379 -25,25 25,25 25,-25 c 0,-13.8071 -11.1929,-25 -25,-25 z"
       id="path3050-3" />
    <path
       inkscape:connector-curvature="0"
       style="fill:#000000;fill-opacity:1"
       d="m 2100,1379 -25,25 25,25 25,-25 c 0,-13.8071 -11.1929,-25 -25,-25 z"
       id="path3050-9" />
    <path
       inkscape:connector-curvature="0"
       style="fill:#000000;fill-opacity:1"
       d="m 2100,879 -25,25 25,25 25,-25 c 0,-13.80712 -11.1929,-25 -25,-25 z"
       id="path3050-38" />
    <path
       inkscape:connector-curvature="0"
       style="fill:#000000;fill-opacity:1"
       d="m 1100,479 -25,25 25,25 25,-25 c 0,-13.80712 -11.1929,-25 -25,-25 z"
       id="path3050-4" />
    <path
       inkscape:connector-curvature="0"
       style="fill:#000000;fill-opacity:1"
       d="m 1100,879 -25,25 25,25 25,-25 c 0,-13.80712 -11.1929,-25 -25,-25 z"
       id="path3050-10" />
    <path
       inkscape:connector-curvature="0"
       style="fill:#000000;fill-opacity:1"
       d="m 1100,1379 -25,25 25,25 25,-25 c 0,-13.8071 -11.1929,-25 -25,-25 z"
       id="path3050-8" />
    <path
       inkscape:connector-curvature="0"
       style="fill:#000000;fill-opacity:1"
       d="m 1600,1379 -25,25 25,25 25,-25 c 0,-13.8071 -11.1929,-25 -25,-25 z"
       id="path3050-7" />
    <path
       inkscape:connector-curvature="0"
       style="fill:#000000;fill-opacity:1"
       d="m 1600,879 -25,25 25,25 25,-25 c 0,-13.80712 -11.1929,-25 -25,-25 z"
       id="path3050-2" />
    <path
       inkscape:connector-curvature="0"
       style="fill:#000000;fill-opacity:1"
       d="m 1225,904 25,25 25,-25 -25,-25 c -13.8071,0 -25,11.1929 -25,25 z"
       id="path3050-2-5"
       inkscape:transform-center-x="-100" />
    <path
       inkscape:connector-curvature="0"
       style="fill:#000000;fill-opacity:1"
       d="m 1725,904 25,25 25,-25 -25,-25 c -13.8071,0 -25,11.1929 -25,25 z"
       id="path3050-2-5-6"
       inkscape:transform-center-x="-100" />
    <path
       inkscape:connector-curvature="0"
       style="fill:#000000;fill-opacity:1"
       d="m 1225,504 25,25 25,-25 -25,-25 c -13.8071,0 -25,11.1929 -25,25 z"
       id="path3050-2-5-8"
       inkscape:transform-center-x="-100" />
    <path
       inkscape:connector-curvature="0"
       style="fill:#000000;fill-opacity:1"
       d="m 825,504 25,25 25,-25 -25,-25 c -13.8071,0 -25,11.1929 -25,25 z"
       id="path3050-2-5-68"
       inkscape:transform-center-x="-100" />
    <path
       inkscape:connector-curvature="0"
       style="fill:#000000;fill-opacity:1"
       d="m 825,904 25,25 25,-25 -25,-25 c -13.8071,0 -25,11.1929 -25,25 z"
       id="path3050-2-5-5"
       inkscape:transform-center-x="-100" />
    <path
       inkscape:connector-curvature="0"
       style="fill:#000000;fill-opacity:1"
       d="m 825,1404 25,25 25,-25 -25,-25 c -13.8071,0 -25,11.1929 -25,25 z"
       id="path3050-2-5-1"
       inkscape:transform-center-x="-100" />
    <path
       inkscape:connector-curvature="0"
       style="fill:#000000;fill-opacity:1"
       d="m 1225,1404 25,25 25,-25 -25,-25 c -13.8071,0 -25,11.1929 -25,25 z"
       id="path3050-2-5-4"
       inkscape:transform-center-x="-100" />
    <path
       inkscape:connector-curvature="0"
       style="fill:#000000;fill-opacity:1"
       d="m 1250,779 25,-25 -25,-25 -25,25 c 0,13.80712 11.1929,25 25,25 z"
       id="path3050-4-3" />
    <path
       inkscape:connector-curvature="0"
       style="fill:#000000;fill-opacity:1"
       d="m 850,779 25,-25 -25,-25 -25,25 c 0,13.80712 11.1929,25 25,25 z"
       id="path3050-4-3-7" />
    <path
       inkscape:connector-curvature="0"
       style="fill:#000000;fill-opacity:1"
       d="m 850,1279 25,-25 -25,-25 -25,25 c 0,13.8071 11.1929,25 25,25 z"
       id="path3050-4-3-6" />
    <path
       inkscape:connector-curvature="0"
       style="fill:#000000;fill-opacity:1"
       d="m 850,1679 25,-25 -25,-25 -25,25 c 0,13.8071 11.1929,25 25,25 z"
       id="path3050-4-3-5" />
    <path
       inkscape:connector-curvature="0"
       style="fill:#000000;fill-opacity:1"
       d="m 1250,1679 25,-25 -25,-25 -25,25 c 0,13.8071 11.1929,25 25,25 z"
       id="path3050-4-3-9" />
    <path
       inkscape:connector-curvature="0"
       style="fill:#000000;fill-opacity:1"
       d="m 1750,1679 25,-25 -25,-25 -25,25 c 0,13.8071 11.1929,25 25,25 z"
       id="path3050-4-3-4" />
    <path
       inkscape:connector-curvature="0"
       style="fill:#000000;fill-opacity:1"
       d="m 1725,1404 25,25 25,-25 -25,-25 c -13.8071,0 -25,11.1929 -25,25 z"
       id="path3050-2-5-4-6"
       inkscape:transform-center-x="-100" />
    <path
       inkscape:connector-curvature="0"
       style="fill:#000000;fill-opacity:1"
       d="m 2250,1679 25,-25 -25,-25 -25,25 c 0,13.8071 11.1929,25 25,25 z"
       id="path3050-4-3-4-4" />
    <path
       inkscape:connector-curvature="0"
       style="fill:#000000;fill-opacity:1"
       d="m 2225,1404 25,25 25,-25 -25,-25 c -13.8071,0 -25,11.1929 -25,25 z"
       id="path3050-2-5-4-6-2"
       inkscape:transform-center-x="-100" />
    <path
       inkscape:connector-curvature="0"
       style="fill:#000000;fill-opacity:1"
       d="m 2250,1279 25,-25 -25,-25 -25,25 c 0,13.8071 11.1929,25 25,25 z"
       id="path3050-4-3-4-4-0" />
    <path
       inkscape:connector-curvature="0"
       style="fill:#000000;fill-opacity:1"
       d="m 1750,1279 25,-25 -25,-25 -25,25 c 0,13.8071 11.1929,25 25,25 z"
       id="path3050-4-3-4-4-0-2" />
    <path
       inkscape:connector-curvature="0"
       style="fill:#000000;fill-opacity:1"
       d="m 2225,904 25,25 25,-25 -25,-25 c -13.8071,0 -25,11.1929 -25,25 z"
       id="path3050-2-5-4-6-2-7"
       inkscape:transform-center-x="-100" />
    <path
       inkscape:connector-curvature="0"
       style="fill:#000000;fill-opacity:1"
       d="m 1250,1279 25,-25 -25,-25 -25,25 c 0,13.8071 11.1929,25 25,25 z"
       id="path3050-4-3-4-4-0-2-9" />
    <path
       inkscape:connector-curvature="0"
       style="fill:#000000;fill-opacity:1"
       d="m 2225,504 25,25 25,-25 -25,-25 c -13.8071,0 -25,11.1929 -25,25 z"
       id="path3050-2-5-4-6-2-7-8"
       inkscape:transform-center-x="-100" />
    <path
       inkscape:connector-curvature="0"
       style="fill:#000000;fill-opacity:1"
       d="m 2250,779 25,-25 -25,-25 -25,25 c 0,13.8071 11.1929,25 25,25 z"
       id="path3050-4-3-4-4-0-9" />
    <path
       inkscape:connector-curvature="0"
       style="fill:#000000;fill-opacity:1"
       d="m 2125,754 -25,-25 -25,25 25,25 c 13.8071,0 25,-11.1929 25,-25 z"
       id="path3050-4-1" />
    <path
       inkscape:connector-curvature="0"
       style="fill:#000000;fill-opacity:1"
       d="m 2525,754 -25,-25 -25,25 25,25 c 13.8071,0 25,-11.1929 25,-25 z"
       id="path3050-4-1-3" />
    <path
       inkscape:connector-curvature="0"
       style="fill:#000000;fill-opacity:1"
       d="m 2525,1254 -25,-25 -25,25 25,25 c 13.8071,0 25,-11.1929 25,-25 z"
       id="path3050-4-1-0" />
    <path
       inkscape:connector-curvature="0"
       style="fill:#000000;fill-opacity:1"
       d="m 2525,1654 -25,-25 -25,25 25,25 c 13.8071,0 25,-11.1929 25,-25 z"
       id="path3050-4-1-5" />
    <path
       inkscape:connector-curvature="0"
       style="fill:#000000;fill-opacity:1"
       d="m 2125,1654 -25,-25 -25,25 25,25 c 13.8071,0 25,-11.1929 25,-25 z"
       id="path3050-4-1-1" />
    <path
       inkscape:connector-curvature="0"
       style="fill:#000000;fill-opacity:1"
       d="m 1625,1654 -25,-25 -25,25 25,25 c 13.8071,0 25,-11.1929 25,-25 z"
       id="path3050-4-1-4" />
    <path
       inkscape:connector-curvature="0"
       style="fill:#000000;fill-opacity:1"
       d="m 1125,1654 -25,-25 -25,25 25,25 c 13.8071,0 25,-11.1929 25,-25 z"
       id="path3050-4-1-6" />
    <path
       inkscape:connector-curvature="0"
       style="fill:#000000;fill-opacity:1"
       d="m 1125,754 -25,-25 -25,25 25,25 c 13.8071,0 25,-11.1929 25,-25 z"
       id="path3050-4-1-49" />
    <path
       inkscape:connector-curvature="0"
       style="fill:#000000;fill-opacity:1"
       d="m 1125,1254 -25,-25 -25,25 25,25 c 13.8071,0 25,-11.1929 25,-25 z"
       id="path3050-4-1-41" />
    <path
       inkscape:connector-curvature="0"
       style="fill:#000000;fill-opacity:1"
       d="m 2125,1254 -25,-25 -25,25 25,25 c 13.8071,0 25,-11.1929 25,-25 z"
       id="path3050-4-1-2" />
    <path
       inkscape:connector-curvature="0"
       style="fill:#000000;fill-opacity:1"
       d="m 1625,1254 -25,-25 -25,25 25,25 c 13.8071,0 25,-11.1929 25,-25 z"
       id="path3050-4-1-23" />
  </g>
  <g
     inkscape:groupmode="layer"
     id="layer3"
     inkscape:label="Table tops"
     transform="translate(0,304)"
     sodipodi:insensitive="true"
     style="display:none">
    <rect
       style="fill:#000000;fill-opacity:1"
       id="rect3292"
       width="250"
       height="25"
       x="850"
       y="175" />
    <rect
       style="fill:#000000;fill-opacity:1"
       id="rect3294"
       width="25"
       height="250"
       x="825"
       y="200" />
    <rect
       style="fill:#000000;fill-opacity:1"
       id="rect3296"
       width="25"
       height="250"
       x="1100"
       y="200" />
    <rect
       style="fill:#000000;fill-opacity:1"
       id="rect3298"
       width="250"
       height="25"
       x="850"
       y="450" />
    <rect
       style="fill:#000000;fill-opacity:1"
       id="rect3300"
       width="850"
       height="25"
       x="1250"
       y="175" />
    <rect
       style="fill:#000000;fill-opacity:1"
       id="rect3302"
       width="25"
       height="250"
       x="2100"
       y="200" />
    <rect
       style="fill:#000000;fill-opacity:1"
       id="rect3304"
       width="850"
       height="25"
       x="1250"
       y="450" />
    <rect
       style="fill:#000000;fill-opacity:1"
       id="rect3306"
       width="25"
       height="250"
       x="1225"
       y="200" />
    <rect
       style="fill:#000000;fill-opacity:1"
       id="rect3308"
       width="250"
       height="25"
       x="2250"
       y="175" />
    <rect
       style="fill:#000000;fill-opacity:1"
       id="rect3310"
       width="25"
       height="250"
       x="2500"
       y="200" />
    <rect
       style="fill:#000000;fill-opacity:1"
       id="rect3312"
       width="250"
       height="25"
       x="2250"
       y="450" />
    <rect
       style="fill:#000000;fill-opacity:1"
       id="rect3314"
       width="25"
       height="250"
       x="2225"
       y="200" />
    <rect
       style="fill:#000000;fill-opacity:1"
       id="rect3316"
       width="25"
       height="350"
       x="2500"
       y="600" />
    <rect
       style="fill:#000000;fill-opacity:1"
       id="rect3318"
       width="250"
       height="25"
       x="2250"
       y="575" />
    <rect
       style="fill:#000000;fill-opacity:1"
       id="rect3322"
       width="25"
       height="350"
       x="2225"
       y="600" />
    <rect
       style="fill:#000000;fill-opacity:1"
       id="rect3324"
       width="250"
       height="25"
       x="2250"
       y="950" />
    <rect
       style="fill:#000000;fill-opacity:1"
       id="rect3326"
       width="250"
       height="25"
       x="2250"
       y="1075" />
    <rect
       style="fill:#000000;fill-opacity:1"
       id="rect3328"
       width="25"
       height="250"
       x="2500"
       y="1100" />
    <rect
       style="fill:#000000;fill-opacity:1"
       id="rect3330"
       width="250"
       height="25"
       x="2250"
       y="1350" />
    <rect
       style="fill:#000000;fill-opacity:1"
       id="rect3332"
       width="25"
       height="250"
       x="2225"
       y="1100" />
    <rect
       style="fill:#000000;fill-opacity:1"
       id="rect3334"
       width="350"
       height="25"
       x="1750"
       y="575" />
    <rect
       style="fill:#000000;fill-opacity:1"
       id="rect3336"
       width="25"
       height="350"
       x="2100"
       y="600" />
    <rect
       style="fill:#000000;fill-opacity:1"
       id="rect3338"
       width="350"
       height="25"
       x="1750"
       y="950" />
    <rect
       style="fill:#000000;fill-opacity:1"
       id="rect3340"
       width="25"
       height="350"
       x="1725"
       y="600" />
    <rect
       style="fill:#000000;fill-opacity:1"
       id="rect3342"
       width="350"
       height="25"
       x="1750"
       y="1075" />
    <rect
       style="fill:#000000;fill-opacity:1"
       id="rect3344"
       width="25"
       height="250"
       x="2100"
       y="1100" />
    <rect
       style="fill:#000000;fill-opacity:1"
       id="rect3346"
       width="350"
       height="25"
       x="1750"
       y="1350" />
    <rect
       style="fill:#000000;fill-opacity:1"
       id="rect3348"
       width="25"
       height="250"
       x="1725"
       y="1100" />
    <rect
       style="fill:#000000;fill-opacity:1"
       id="rect3350"
       width="350"
       height="25"
       x="1250"
       y="1075" />
    <rect
       style="fill:#000000;fill-opacity:1"
       id="rect3352"
       width="25"
       height="250"
       x="1600"
       y="1100" />
    <rect
       style="fill:#000000;fill-opacity:1"
       id="rect3354"
       width="350"
       height="25"
       x="1250"
       y="1350" />
    <rect
       style="fill:#000000;fill-opacity:1"
       id="rect3356"
       width="25"
       height="250"
       x="1225"
       y="1100" />
    <rect
       style="fill:#000000;fill-opacity:1"
       id="rect3358"
       width="250"
       height="25"
       x="850"
       y="1075" />
    <rect
       style="fill:#000000;fill-opacity:1"
       id="rect3360"
       width="25"
       height="250"
       x="1100"
       y="1100" />
    <rect
       style="fill:#000000;fill-opacity:1"
       id="rect3362"
       width="250"
       height="25"
       x="850"
       y="1350" />
    <rect
       style="fill:#000000;fill-opacity:1"
       id="rect3364"
       width="25"
       height="250"
       x="825"
       y="1100" />
    <rect
       style="fill:#000000;fill-opacity:1"
       id="rect3366"
       width="250"
       height="25"
       x="850"
       y="575" />
    <rect
       style="fill:#000000;fill-opacity:1"
       id="rect3368"
       width="25"
       height="350"
       x="1100"
       y="600" />
    <rect
       style="fill:#000000;fill-opacity:1"
       id="rect3370"
       width="250"
       height="25"
       x="850"
       y="950" />
    <rect
       style="fill:#000000;fill-opacity:1"
       id="rect3372"
       width="25"
       height="350"
       x="825"
       y="600" />
    <rect
       style="fill:#000000;fill-opacity:1"
       id="rect3374"
       width="350"
       height="25"
       x="1250"
       y="575" />
    <rect
       style="fill:#000000;fill-opacity:1"
       id="rect3376"
       width="25"
       height="350"
       x="1600"
       y="600" />
    <rect
       style="fill:#000000;fill-opacity:1"
       id="rect3378"
       width="350"
       height="25"
       x="1250"
       y="950" />
    <rect
       style="fill:#000000;fill-opacity:1"
       id="rect3380"
       width="25"
       height="350"
       x="1225"
       y="600" />
  </g>
</svg>
